<?xml version="1.0" encoding="UTF-8" standalone="no"?>
<!-- Created with Inkscape (http://www.inkscape.org/) -->

<svg
   version="1.1"
   id="svg3767"
   width="425"
   height="453"
   viewBox="0 0 425 453"
   sodipodi:docname="app-icon.svg"
   inkscape:version="1.1.2 (0a00cf5339, 2022-02-04)"
   xmlns:inkscape="http://www.inkscape.org/namespaces/inkscape"
   xmlns:sodipodi="http://sodipodi.sourceforge.net/DTD/sodipodi-0.dtd"
   xmlns="http://www.w3.org/2000/svg"
   xmlns:svg="http://www.w3.org/2000/svg"
   xmlns:rdf="http://www.w3.org/1999/02/22-rdf-syntax-ns#"
   xmlns:cc="http://creativecommons.org/ns#"
   xmlns:dc="http://purl.org/dc/elements/1.1/">
  <metadata
     id="metadata3773">
    <rdf:RDF>
      <cc:Work
         rdf:about="">
        <dc:format>image/svg+xml</dc:format>
        <dc:type
           rdf:resource="http://purl.org/dc/dcmitype/StillImage" />
        <dc:title />
      </cc:Work>
    </rdf:RDF>
  </metadata>
  <defs
     id="defs3771">
    <clipPath
       clipPathUnits="userSpaceOnUse"
       id="clipPath5621">
      <path
         style="fill:none;stroke:#000000;stroke-width:15;stroke-linecap:round;stroke-linejoin:miter;stroke-miterlimit:4;stroke-dasharray:none;stroke-opacity:1"
         d="m 118.93453,16.81579 -6.00128,73.652118"
         id="path5623"
         inkscape:connector-curvature="0" />
    </clipPath>
  </defs>
  <sodipodi:namedview
     pagecolor="#ffffff"
     bordercolor="#666666"
     borderopacity="1"
     objecttolerance="10"
     gridtolerance="10"
     guidetolerance="10"
     inkscape:pageopacity="0"
     inkscape:pageshadow="2"
     inkscape:window-width="960"
     inkscape:window-height="1043"
     id="namedview3769"
     showgrid="false"
     inkscape:zoom="0.65403474"
     inkscape:cx="262.21849"
     inkscape:cy="325.67077"
     inkscape:window-x="1920"
     inkscape:window-y="0"
     inkscape:window-maximized="0"
     inkscape:current-layer="svg3767"
     inkscape:pagecheckerboard="true"
     showborder="false"
     inkscape:snap-bbox="false"
     inkscape:bbox-paths="true"
     inkscape:bbox-nodes="true"
     inkscape:snap-bbox-edge-midpoints="true"
     inkscape:snap-bbox-midpoints="true"
     inkscape:object-paths="true"
     inkscape:snap-intersection-paths="true"
     inkscape:snap-smooth-nodes="true"
     inkscape:snap-midpoints="false"
     inkscape:snap-object-midpoints="true"
     inkscape:snap-center="true"
     inkscape:snap-text-baseline="true"
     inkscape:snap-page="true"
     inkscape:snap-global="true"
     inkscape:snap-nodes="false"
     inkscape:snap-others="false" />
  <path
     id="rect3802"
     style="display:inline;opacity:0;fill:none;stroke:#000000;stroke-width:25;stroke-linecap:round;stroke-linejoin:round;stroke-miterlimit:4;stroke-dasharray:none;stroke-opacity:1"
     d="m 10.84145,101.83183 h 401.68039 c 4.19269,0 7.56802,3.37534 7.56802,7.56803 v 258.74072 c 0,4.19268 -3.37533,7.56802 -7.56802,7.56802 H 10.84145 c -4.1926846,0 -7.5680225,-3.37534 -7.5680225,-7.56802 V 109.39986 c 0,-4.19269 3.3753379,-7.56803 7.5680225,-7.56803 z m 200.61003,355.45898 c 48.55583,-34.64377 97.572,0.0401 97.572,0.0401 m -97.572,0.0401 c 48.55584,34.64377 97.572,-0.0401 97.572,-0.0401 m 0,5e-5 6.00128,-73.65212 m -103.57328,73.69217 -6.00128,-73.65212 m -174.32941,73.7043 c 48.555839,-34.64377 97.572,0.0401 97.572,0.0401 m -97.571999,0.0401 c 48.55584,34.64377 97.571999,-0.0401 97.571999,-0.0401 m 0,5e-5 6.00128,-73.65212 M 31.120791,457.50339 25.119511,383.85127 M 298.13652,27.442914 c 48.55584,-34.64377 97.57202,0.0401 97.57202,0.0401 m 0,-4e-5 6.00128,73.652106 M 298.13652,27.442914 292.13524,101.09503 M 118.93453,26.81579 c 48.55584,-34.643774 97.57202,0.04005 97.57202,0.04005 m -97.57202,-3.859049 z m 0,0 z m 0,0 z m 97.57202,3.859052 6.00128,73.652117 m -103.5733,-73.69217 -6.00128,73.65212 m -96.929174,1.36392 H 407.35922 c 7.05278,0 12.73064,5.67787 12.73064,12.73065 v 248.41547 c 0,7.05278 -5.67786,12.73065 -12.73064,12.73065 H 16.004076 c -7.0527795,0 -12.7306485,-5.67787 -12.7306485,-12.73065 V 114.56248 c 0,-7.05278 5.677869,-12.73065 12.7306485,-12.73065 z"
     inkscape:connector-curvature="0" />
  <path
     style="opacity:0.1;fill:#000000;fill-opacity:1;stroke:none;stroke-width:1px;stroke-linecap:butt;stroke-linejoin:miter;stroke-opacity:1"
     d="M 403.64828,12.656418 1026.7039,635.71201 629.17147,1062.2949 21.405591,454.52897 -6.1158831,98.278781 114.67281,89.104957 l 13.76073,-67.274714 75.68406,75.684053 19.11213,-5.351398 3.05794,-79.50648 67.27472,67.274714 13.76073,-59.62986 81.79994,81.799938 z"
     id="path2567"
     inkscape:connector-curvature="0"
     sodipodi:nodetypes="cccccccccccccc" />
  <rect
     clip-path="url(#clipPath5621)"
     ry="12.730648"
     style="display:inline;fill:none;stroke:#000000;stroke-width:25;stroke-linejoin:round;stroke-miterlimit:4;stroke-dasharray:none;stroke-opacity:1"
     y="91.831833"
     x="3.2734275"
     height="273.87677"
     width="416.81644"
     id="rect1850" />
  <path
     inkscape:connector-curvature="0"
     id="path1856"
     d="M 118.93453,12.996791 Z"
     style="display:inline;fill:none;stroke:#000000;stroke-width:25;stroke-linecap:butt;stroke-linejoin:miter;stroke-miterlimit:4;stroke-dasharray:none;stroke-opacity:1" />
  <path
     inkscape:connector-curvature="0"
     id="path1858"
     d="M 118.93453,12.996791 Z"
     style="display:inline;fill:none;stroke:#000000;stroke-width:25;stroke-linecap:butt;stroke-linejoin:miter;stroke-miterlimit:4;stroke-dasharray:none;stroke-opacity:1" />
  <path
     inkscape:connector-curvature="0"
     id="path1860"
     d="M 118.93453,12.996791 Z"
     style="display:inline;fill:none;stroke:#000000;stroke-width:25;stroke-linecap:butt;stroke-linejoin:miter;stroke-miterlimit:4;stroke-dasharray:none;stroke-opacity:1" />
  <path
     id="path1862"
     style="display:inline;fill:#ffffff;stroke:#000000;stroke-width:25;stroke-linecap:round;stroke-linejoin:miter;stroke-miterlimit:4;stroke-dasharray:none;stroke-opacity:1;fill-opacity:1"
     d="m 118.93453,16.81579 c 48.55584,-34.643774 97.57202,0.04005 97.57202,0.04005 m 0,3e-6 6.00128,73.652117 -109.57458,-0.04005 6.00128,-73.652118" />
  <path
     id="path1868"
     style="display:inline;fill:#ffffff;stroke:#000000;stroke-width:25;stroke-linecap:round;stroke-linejoin:miter;stroke-miterlimit:4;stroke-dasharray:none;stroke-opacity:1;fill-opacity:1"
     d="m 298.13652,17.442914 c 48.55584,-34.64377 97.57202,0.0401 97.57202,0.0401 m 0,-4e-5 6.00128,73.65211 -109.57458,-0.04005 6.00128,-73.65212" />
  <path
     inkscape:connector-curvature="0"
     id="path1870"
     d="m 31.641532,446.96726 -5.937223,-81.35305 108.404971,-0.0443 -5.93722,81.35306"
     style="display:inline;fill:#ffffff;fill-opacity:1;stroke:#000000;stroke-width:26.1339;stroke-linecap:round;stroke-linejoin:miter;stroke-miterlimit:4;stroke-dasharray:none;stroke-opacity:1"
     sodipodi:nodetypes="cccc" />
  <path
     id="path1876"
     style="display:inline;fill:#ffffff;stroke:#000000;stroke-width:25;stroke-linecap:butt;stroke-linejoin:miter;stroke-miterlimit:4;stroke-dasharray:none;stroke-opacity:1;fill-opacity:1"
     d="m 31.12079,447.42319 c 48.555839,-34.64377 97.572,0.0401 97.572,0.0401 m -97.571999,0.0401 c 48.55584,34.64377 97.571999,-0.0401 97.571999,-0.0401" />
  <path
     inkscape:connector-curvature="0"
     id="path1880"
     d="m 308.56324,446.85325 5.94467,-80.43418 -108.54085,0.0438 5.94466,80.43418"
     style="display:inline;fill:#ffffff;fill-opacity:1;stroke:#000000;stroke-width:26.0022;stroke-linecap:round;stroke-linejoin:miter;stroke-miterlimit:4;stroke-dasharray:none;stroke-opacity:1"
     sodipodi:nodetypes="cccc" />
  <path
     id="path1884"
     style="display:inline;fill:#ffffff;stroke:#000000;stroke-width:25;stroke-linecap:butt;stroke-linejoin:miter;stroke-miterlimit:4;stroke-dasharray:none;stroke-opacity:1;fill-opacity:1"
     d="m 211.45148,447.29081 c 48.55583,-34.64377 97.572,0.0401 97.572,0.0401 m -97.572,0.0401 c 48.55584,34.64377 97.572,-0.0401 97.572,-0.0401" />
  <rect
     ry="7.5680223"
     style="display:inline;fill:#ffffff;stroke:#000000;stroke-width:25;stroke-linecap:butt;stroke-linejoin:round;stroke-miterlimit:4;stroke-dasharray:none;stroke-opacity:1;fill-opacity:1"
     y="91.831833"
     x="3.2734275"
     height="273.87677"
     width="416.81644"
     id="rect1886" />
</svg>
